<svg xmlns="http://www.w3.org/2000/svg" viewBox="0 0 64 64" role="img" aria-labelledby="title desc">
  <title id="title">Kawasee icon</title>
  <desc id="desc">Rounded square exchange icon with a yen symbol and directional arrows.</desc>
  <defs>
    <linearGradient id="bg" x1="10" y1="8" x2="54" y2="56" gradientUnits="userSpaceOnUse">
      <stop offset="0" stop-color="#0f172a" />
      <stop offset="1" stop-color="#0ea5e9" />
    </linearGradient>
    <linearGradient id="glow" x1="18" y1="18" x2="46" y2="46" gradientUnits="userSpaceOnUse">
      <stop offset="0" stop-color="#ffffff" stop-opacity="0.28" />
      <stop offset="1" stop-color="#ffffff" stop-opacity="0.08" />
    </linearGradient>
  </defs>

  <rect x="4" y="4" width="56" height="56" rx="18" fill="url(#bg)" />
  <circle cx="32" cy="32" r="18" fill="url(#glow)" />

  <path
    d="M20 22c2.8-5.4 8.1-8.5 14.3-8.5 4.8 0 8.6 1.5 11.7 4.6"
    fill="none"
    stroke="#7dd3fc"
    stroke-linecap="round"
    stroke-linejoin="round"
    stroke-width="3.5"
  />
  <path
    d="M44 14.5l2 5.7-5.9 1.6"
    fill="none"
    stroke="#7dd3fc"
    stroke-linecap="round"
    stroke-linejoin="round"
    stroke-width="3.5"
  />

  <path
    d="M44 42c-2.8 5.4-8.1 8.5-14.3 8.5-4.8 0-8.6-1.5-11.7-4.6"
    fill="none"
    stroke="#fde68a"
    stroke-linecap="round"
    stroke-linejoin="round"
    stroke-width="3.5"
  />
  <path
    d="M20 49.5l-2-5.7 5.9-1.6"
    fill="none"
    stroke="#fde68a"
    stroke-linecap="round"
    stroke-linejoin="round"
    stroke-width="3.5"
  />

  <path
    d="M24 18l8 10 8-10M24.5 29.5h15M24.5 36h15M32 27.5v18"
    fill="none"
    stroke="#ffffff"
    stroke-linecap="round"
    stroke-linejoin="round"
    stroke-width="4"
  />
</svg>
